<?xml version="1.0" encoding="UTF-8"?>
<svg xmlns="http://www.w3.org/2000/svg" viewBox="0 0 800 520" fill="none">
  <defs>
    <filter id="glow" x="-25%" y="-25%" width="150%" height="150%" color-interpolation-filters="sRGB">
      <feGaussianBlur in="SourceGraphic" stdDeviation="1.7" result="b"/>
      <feMerge>
        <feMergeNode in="b"/>
        <feMergeNode in="SourceGraphic"/>
      </feMerge>
    </filter>
  </defs>
  <g stroke="#47FF6B" fill="none" stroke-linecap="round" stroke-linejoin="round" filter="url(#glow)">
    <path d="M 80 40 H 720 L 660 300 H 140 Z" stroke-width="6.5" opacity="0.96"/>
    <path d="M 160 80 H 640 L 600 270 H 200 Z" stroke-width="4.5" opacity="0.7"/>
    <line x1="200" y1="120" x2="600" y2="120" stroke-width="3" opacity="0.55"/>
    <line x1="210" y1="160" x2="590" y2="160" stroke-width="3" opacity="0.55"/>
    <line x1="220" y1="200" x2="580" y2="200" stroke-width="3" opacity="0.55"/>
    <line x1="230" y1="240" x2="570" y2="240" stroke-width="3" opacity="0.5"/>
    <path d="M 230 90 V 200" stroke-width="4" opacity="0.55"/>
    <path d="M 570 90 V 200" stroke-width="4" opacity="0.55"/>
    <path d="M 60 300 H 740 L 700 390 H 100 Z" stroke-width="6" opacity="0.96"/>
    <rect x="350" y="400" width="100" height="48" rx="6" stroke-width="6" opacity="0.96"/>
    <path d="M 350 424 H 450" stroke-width="4" opacity="0.7"/>
    <circle cx="400" cy="470" r="22" stroke-width="5" opacity="0.96"/>
    <path d="M 378 470 H 422" stroke-width="4" opacity="0.96"/>
    <path d="M 400 448 V 492" stroke-width="4" opacity="0.96"/>
  </g>
</svg>
