<?xml version="1.0" encoding="UTF-8"?>
<svg xmlns="http://www.w3.org/2000/svg" viewBox="0 0 800 460" fill="none">
  <defs>
    <filter id="glow" x="-25%" y="-25%" width="150%" height="150%" color-interpolation-filters="sRGB">
      <feGaussianBlur in="SourceGraphic" stdDeviation="1.7" result="b"/>
      <feMerge>
        <feMergeNode in="b"/>
        <feMergeNode in="SourceGraphic"/>
      </feMerge>
    </filter>
  </defs>
  <g stroke="#47FF6B" fill="none" stroke-linecap="round" stroke-linejoin="round" filter="url(#glow)">
    <path d="M 40 80 H 760 V 380 H 40 Z" stroke-width="6" opacity="0.96"/>
    <rect x="250" y="150" width="300" height="90" rx="16" stroke-width="5.5" opacity="0.96"/>
    <circle cx="330" cy="196" r="22" stroke-width="4.5" opacity="0.96"/>
    <circle cx="470" cy="196" r="22" stroke-width="4.5" opacity="0.96"/>
    <rect x="380" y="180" width="40" height="32" rx="6" stroke-width="3.5" opacity="0.75"/>
    <rect x="300" y="250" width="200" height="28" rx="6" stroke-width="3.5" opacity="0.65"/>
    <path d="M 70 70 H 250 L 230 120 H 90 Z" stroke-width="4.5" opacity="0.75"/>
    <path d="M 730 70 H 550 L 570 120 H 710 Z" stroke-width="4.5" opacity="0.75"/>
    <path d="M 80 200 H 150 V 250 H 80 Z" stroke-width="4" opacity="0.7"/>
    <path d="M 720 200 H 650 V 250 H 720 Z" stroke-width="4" opacity="0.7"/>
    <rect x="280" y="300" width="240" height="50" rx="8" stroke-width="3.5" opacity="0.55"/>
    <path d="M 120 330 H 680" stroke-width="3" opacity="0.4"/>
  </g>
</svg>
