<?xml version="1.0" encoding="UTF-8"?>
<svg xmlns="http://www.w3.org/2000/svg" viewBox="0 0 800 440" fill="none">
  <defs>
    <filter id="glow" x="-25%" y="-25%" width="150%" height="150%" color-interpolation-filters="sRGB">
      <feGaussianBlur in="SourceGraphic" stdDeviation="1.7" result="b"/>
      <feMerge>
        <feMergeNode in="b"/>
        <feMergeNode in="SourceGraphic"/>
      </feMerge>
    </filter>
  </defs>
  <g stroke="#47FF6B" fill="none" stroke-linecap="round" stroke-linejoin="round" filter="url(#glow)">
    <path d="M 70 168 C 210 78 540 70 740 156" stroke-width="6" opacity="0.96"/>
    <path d="M 48 332 C 220 392 560 398 760 318" stroke-width="6" opacity="0.96"/>
    <path d="M 150 168 C 130 230 128 300 168 348 C 250 390 560 386 650 330 C 710 286 706 196 620 160 C 480 112 250 118 150 168 Z" stroke-width="7" opacity="0.96"/>
    <path d="M 210 196 C 198 240 204 292 240 324 C 310 358 530 352 600 308 C 642 276 636 214 572 188 C 470 150 280 154 210 196 Z" stroke-width="4.2" opacity="0.8"/>
    <circle cx="330" cy="252" r="52" stroke-width="5.5" opacity="0.96"/>
    <circle cx="330" cy="252" r="22" stroke-width="3.5" opacity="0.75"/>
    <path d="M 430 208 H 590" stroke-width="8" opacity="0.96"/>
    <path d="M 448 236 H 560" stroke-width="3.2" opacity="0.65"/>
    <path d="M 86 196 V 300" stroke-width="3" opacity="0.55"/>
    <path d="M 112 184 V 314" stroke-width="3" opacity="0.55"/>
    <path d="M 138 176 V 322" stroke-width="3" opacity="0.5"/>
    <path d="M 168 348 L 120 372" stroke-width="4" opacity="0.6"/>
  </g>
</svg>
