<?xml version="1.0" encoding="UTF-8"?>
<svg xmlns="http://www.w3.org/2000/svg" viewBox="0 0 800 480" fill="none">
  <defs>
    <filter id="glow" x="-25%" y="-25%" width="150%" height="150%" color-interpolation-filters="sRGB">
      <feGaussianBlur in="SourceGraphic" stdDeviation="1.7" result="b"/>
      <feMerge>
        <feMergeNode in="b"/>
        <feMergeNode in="SourceGraphic"/>
      </feMerge>
    </filter>
  </defs>
  <g stroke="#47FF6B" fill="none" stroke-linecap="round" stroke-linejoin="round" filter="url(#glow)">
    <rect x="70" y="90" width="150" height="250" rx="28" stroke-width="6" opacity="0.96"/>
    <circle cx="145" cy="160" r="16" stroke-width="4" opacity="0.96"/>
    <rect x="118" y="210" width="54" height="22" rx="6" stroke-width="3.5" opacity="0.75"/>
    <rect x="118" y="246" width="54" height="22" rx="6" stroke-width="3.5" opacity="0.75"/>
    <rect x="118" y="282" width="54" height="22" rx="6" stroke-width="3.5" opacity="0.75"/>
    <rect x="260" y="120" width="130" height="220" rx="36" stroke-width="6" opacity="0.96"/>
    <circle cx="325" cy="190" r="14" stroke-width="4" opacity="0.96"/>
    <rect x="300" y="230" width="50" height="18" rx="5" stroke-width="3" opacity="0.7"/>
    <rect x="300" y="258" width="50" height="18" rx="5" stroke-width="3" opacity="0.7"/>
    <path d="M 430 250 H 520 L 560 220 H 600 V 250 H 640" stroke-width="5.5" opacity="0.96"/>
    <circle cx="430" cy="250" r="16" stroke-width="4.5" opacity="0.96"/>
    <circle cx="470" cy="236" r="6" stroke-width="3" opacity="0.6"/>
    <rect x="150" y="360" width="250" height="80" rx="6" stroke-width="5" opacity="0.96"/>
    <line x1="170" y1="388" x2="370" y2="388" stroke-width="3" opacity="0.55"/>
    <line x1="170" y1="410" x2="330" y2="410" stroke-width="3" opacity="0.5"/>
    <rect x="450" y="300" width="220" height="130" rx="8" stroke-width="5.5" opacity="0.96"/>
    <path d="M 470 300 V 270 H 560 V 300" stroke-width="4" opacity="0.7"/>
    <line x1="480" y1="340" x2="640" y2="340" stroke-width="3" opacity="0.55"/>
    <line x1="480" y1="368" x2="600" y2="368" stroke-width="3" opacity="0.5"/>
    <line x1="480" y1="394" x2="620" y2="394" stroke-width="3" opacity="0.5"/>
  </g>
</svg>
