<?xml version="1.0" encoding="UTF-8"?>
<svg xmlns="http://www.w3.org/2000/svg" viewBox="0 0 620 780" fill="none">
  <defs>
    <filter id="glow" x="-25%" y="-25%" width="150%" height="150%" color-interpolation-filters="sRGB">
      <feGaussianBlur in="SourceGraphic" stdDeviation="1.7" result="b"/>
      <feMerge>
        <feMergeNode in="b"/>
        <feMergeNode in="SourceGraphic"/>
      </feMerge>
    </filter>
  </defs>
  <g stroke="#47FF6B" fill="none" stroke-linecap="round" stroke-linejoin="round" filter="url(#glow)">
    <path d="M 70 40 H 520 V 740 H 70 Z" stroke-width="6.5" opacity="0.96"/>
    <path d="M 70 40 V 180" stroke-width="5" opacity="0.5"/>
    <path d="M 150 150 H 430 L 400 250 H 180 Z" stroke-width="5" opacity="0.96"/>
    <path d="M 170 250 H 410 V 520 H 150 L 170 250 Z" stroke-width="6" opacity="0.96"/>
    <path d="M 190 300 H 380 V 470 H 190 Z" stroke-width="3.5" opacity="0.6"/>
    <path d="M 200 520 H 400 L 430 620 H 170 Z" stroke-width="5.5" opacity="0.96"/>
    <path d="M 460 280 H 500 V 520 H 450 L 460 280 Z" stroke-width="4.5" opacity="0.96"/>
    <path d="M 468 340 H 492" stroke-width="3" opacity="0.6"/>
    <path d="M 468 370 H 492" stroke-width="3" opacity="0.6"/>
    <circle cx="480" cy="420" r="8" stroke-width="3" opacity="0.65"/>
    <path d="M 120 640 H 500" stroke-width="5" opacity="0.96"/>
    <path d="M 160 680 H 460" stroke-width="3.5" opacity="0.55"/>
    <path d="M 250 150 V 110 H 330 V 150" stroke-width="4" opacity="0.96"/>
  </g>
</svg>
